<svg width="257" height="56" viewBox="0 0 257 56" fill="none" xmlns="http://www.w3.org/2000/svg">
<path d="M238.457 24.3532C238.457 20.441 239.158 17.3769 240.56 15.1607C241.984 12.9446 244.336 11.8365 247.615 11.8365C250.894 11.8365 253.235 12.9446 254.637 15.1607C256.061 17.3769 256.774 20.441 256.774 24.3532C256.774 28.2879 256.061 31.3747 254.637 33.6134C253.235 35.8522 250.894 36.9715 247.615 36.9715C244.336 36.9715 241.984 35.8522 240.56 33.6134C239.158 31.3747 238.457 28.2879 238.457 24.3532ZM252.093 24.3532C252.093 22.6798 251.979 21.2777 251.753 20.147C251.55 18.9937 251.12 18.0553 250.464 17.3316C249.831 16.608 248.881 16.2462 247.615 16.2462C246.349 16.2462 245.388 16.608 244.732 17.3316C244.099 18.0553 243.669 18.9937 243.443 20.147C243.239 21.2777 243.138 22.6798 243.138 24.3532C243.138 26.0718 243.239 27.5191 243.443 28.695C243.646 29.8483 244.076 30.7867 244.732 31.5104C245.388 32.2114 246.349 32.5619 247.615 32.5619C248.881 32.5619 249.842 32.2114 250.498 31.5104C251.154 30.7867 251.584 29.8483 251.787 28.695C251.991 27.5191 252.093 26.0718 252.093 24.3532Z" fill="white"/>
<path d="M220.798 23.9461C218.537 22.7702 217.406 20.9498 217.406 18.4849C217.406 17.2638 217.712 16.1557 218.322 15.1607C218.955 14.1431 219.894 13.3404 221.138 12.7524C222.404 12.1418 223.942 11.8365 225.751 11.8365C227.56 11.8365 229.086 12.1418 230.33 12.7524C231.596 13.3404 232.535 14.1431 233.145 15.1607C233.779 16.1557 234.095 17.2638 234.095 18.4849C234.095 19.7287 233.79 20.8254 233.179 21.7752C232.569 22.7024 231.755 23.426 230.737 23.9461C231.981 24.4888 232.953 25.2803 233.654 26.3205C234.355 27.3608 234.706 28.5932 234.706 30.0179C234.706 31.5556 234.31 32.9011 233.519 34.0544C232.75 35.1851 231.687 36.0557 230.33 36.6663C228.973 37.2768 227.447 37.5821 225.751 37.5821C224.055 37.5821 222.528 37.2768 221.172 36.6663C219.837 36.0557 218.775 35.1851 217.983 34.0544C217.214 32.9011 216.83 31.5556 216.83 30.0179C216.83 28.5932 217.18 27.3608 217.881 26.3205C218.582 25.2577 219.555 24.4662 220.798 23.9461ZM229.482 19.1633C229.482 18.0553 229.143 17.196 228.464 16.5854C227.809 15.9748 226.904 15.6695 225.751 15.6695C224.62 15.6695 223.716 15.9748 223.037 16.5854C222.381 17.196 222.054 18.0666 222.054 19.1973C222.054 20.2149 222.393 21.029 223.071 21.6395C223.772 22.2501 224.665 22.5554 225.751 22.5554C226.836 22.5554 227.729 22.2501 228.431 21.6395C229.132 21.0064 229.482 20.181 229.482 19.1633ZM225.751 26.0153C224.462 26.0153 223.41 26.3432 222.596 26.999C221.805 27.6547 221.409 28.5932 221.409 29.8143C221.409 30.945 221.793 31.8722 222.562 32.5958C223.354 33.2968 224.417 33.6473 225.751 33.6473C227.085 33.6473 228.137 33.2855 228.905 32.5619C229.674 31.8383 230.059 30.9224 230.059 29.8143C230.059 28.6158 229.663 27.6887 228.871 27.0329C228.08 26.3545 227.04 26.0153 225.751 26.0153Z" fill="white"/>
<path d="M203.794 16.6873V12.3115H211.969V37.0395H207.084V16.6873H203.794Z" fill="white"/>
<path d="M198.205 37.2769C197.346 37.2769 196.633 37.0168 196.068 36.4967C195.525 35.954 195.254 35.2869 195.254 34.4954C195.254 33.7039 195.525 33.0481 196.068 32.528C196.633 31.9853 197.346 31.7139 198.205 31.7139C199.042 31.7139 199.732 31.9853 200.274 32.528C200.817 33.0481 201.088 33.7039 201.088 34.4954C201.088 35.2869 200.817 35.954 200.274 36.4967C199.732 37.0168 199.042 37.2769 198.205 37.2769Z" fill="white"/>
<path d="M192.73 20.6898C192.73 21.9561 192.425 23.1433 191.815 24.2514C191.227 25.3595 190.288 26.2527 188.999 26.9311C187.733 27.6095 186.127 27.9487 184.182 27.9487H180.214V37.0394H175.465V13.363H184.182C186.014 13.363 187.574 13.6796 188.863 14.3127C190.152 14.9459 191.113 15.8165 191.747 16.9246C192.402 18.0327 192.73 19.2877 192.73 20.6898ZM183.979 24.1157C185.29 24.1157 186.263 23.8218 186.896 23.2338C187.529 22.6232 187.846 21.7752 187.846 20.6898C187.846 18.3832 186.557 17.2299 183.979 17.2299H180.214V24.1157H183.979Z" fill="white"/>
<path d="M170.77 13.363V37.0394H166.021V21.6395L159.678 37.0394H156.082L149.705 21.6395V37.0394H144.956V13.363H150.35L157.88 30.9676L165.41 13.363H170.77Z" fill="white"/>
<path d="M135.193 32.528H125.764L124.203 37.0394H119.217L127.731 13.329H133.26L141.774 37.0394H136.754L135.193 32.528ZM133.904 28.7289L130.478 18.8241L127.052 28.7289H133.904Z" fill="white"/>
<path d="M93.4858 25.1673C93.4858 22.8381 94.0059 20.7577 95.0461 18.926C96.1089 17.0716 97.5449 15.6357 99.354 14.6181C101.186 13.5779 103.232 13.0577 105.494 13.0577C108.139 13.0577 110.457 13.7361 112.447 15.093C114.437 16.4498 115.828 18.3267 116.619 20.7237H111.158C110.616 19.5931 109.847 18.7451 108.852 18.1797C107.879 17.6144 106.749 17.3317 105.46 17.3317C104.08 17.3317 102.848 17.6596 101.762 18.3154C100.699 18.9486 99.8628 19.8531 99.2522 21.029C98.6643 22.2049 98.3703 23.5844 98.3703 25.1673C98.3703 26.7276 98.6643 28.1071 99.2522 29.3056C99.8628 30.4815 100.699 31.3974 101.762 32.0531C102.848 32.6863 104.08 33.0029 105.46 33.0029C106.749 33.0029 107.879 32.7202 108.852 32.1549C109.847 31.567 110.616 30.7076 111.158 29.577H116.619C115.828 31.9966 114.437 33.8848 112.447 35.2417C110.48 36.5759 108.162 37.243 105.494 37.243C103.232 37.243 101.186 36.7342 99.354 35.7165C97.5449 34.6763 96.1089 33.2404 95.0461 31.4087C94.0059 29.577 93.4858 27.4965 93.4858 25.1673Z" fill="white"/>
<path d="M85.0123 13.363V13.2155H84.8649H80.116H79.9685V13.363V17.196V37.0394V37.1869H80.116H84.8649H85.0123V37.0394V17.196V13.363Z" fill="#E3C906" stroke="#E3C906" stroke-width="0.29496"/>
<path d="M59.4194 37.2768C57.2033 37.2768 55.168 36.7567 53.3137 35.7165C51.4594 34.6762 49.9895 33.2403 48.9041 31.4086C47.8186 29.5543 47.2759 27.4625 47.2759 25.1333C47.2759 22.8267 47.8186 20.7576 48.9041 18.9259C49.9895 17.0716 51.4594 15.6243 53.3137 14.5841C55.168 13.5439 57.2033 13.0237 59.4194 13.0237C61.6581 13.0237 63.6934 13.5439 65.5251 14.5841C67.3794 15.6243 68.8379 17.0716 69.9008 18.9259C70.9862 20.7576 71.529 22.8267 71.529 25.1333C71.529 27.4625 70.9862 29.5543 69.9008 31.4086C68.8379 33.2403 67.3794 34.6762 65.5251 35.7165C63.6707 36.7567 61.6355 37.2768 59.4194 37.2768ZM59.4194 33.0368C60.844 33.0368 62.0991 32.7202 63.1845 32.087C64.27 31.4312 65.118 30.504 65.7286 29.3055C66.3391 28.107 66.6444 26.7163 66.6444 25.1333C66.6444 23.5504 66.3391 22.1709 65.7286 20.995C65.118 19.7965 64.27 18.8807 63.1845 18.2475C62.0991 17.6143 60.844 17.2977 59.4194 17.2977C57.9947 17.2977 56.7284 17.6143 55.6203 18.2475C54.5349 18.8807 53.6868 19.7965 53.0763 20.995C52.4657 22.1709 52.1604 23.5504 52.1604 25.1333C52.1604 26.7163 52.4657 28.107 53.0763 29.3055C53.6868 30.504 54.5349 31.4312 55.6203 32.087C56.7284 32.7202 57.9947 33.0368 59.4194 33.0368Z" fill="white"/>
<path d="M32.7866 37.2768C30.5704 37.2768 28.5352 36.7567 26.6809 35.7165C24.8266 34.6762 23.3567 33.2403 22.2713 31.4086C21.1858 29.5543 20.6431 27.4625 20.6431 25.1333C20.6431 22.8267 21.1858 20.7576 22.2713 18.9259C23.3567 17.0716 24.8266 15.6243 26.6809 14.5841C28.5352 13.5439 30.5704 13.0237 32.7866 13.0237C35.0253 13.0237 37.0605 13.5439 38.8922 14.5841C40.7466 15.6243 42.2051 17.0716 43.268 18.9259C44.3534 20.7576 44.8961 22.8267 44.8961 25.1333C44.8961 27.4625 44.3534 29.5543 43.268 31.4086C42.2051 33.2403 40.7466 34.6762 38.8922 35.7165C37.0379 36.7567 35.0027 37.2768 32.7866 37.2768ZM32.7866 33.0368C34.2112 33.0368 35.4663 32.7202 36.5517 32.087C37.6372 31.4312 38.4852 30.504 39.0958 29.3055C39.7063 28.107 40.0116 26.7163 40.0116 25.1333C40.0116 23.5504 39.7063 22.1709 39.0958 20.995C38.4852 19.7965 37.6372 18.8807 36.5517 18.2475C35.4663 17.6143 34.2112 17.2977 32.7866 17.2977C31.3619 17.2977 30.0956 17.6143 28.9875 18.2475C27.902 18.8807 27.054 19.7965 26.4435 20.995C25.8329 22.1709 25.5276 23.5504 25.5276 25.1333C25.5276 26.7163 25.8329 28.107 26.4435 29.3055C27.054 30.504 27.902 31.4312 28.9875 32.087C30.0956 32.7202 31.3619 33.0368 32.7866 33.0368Z" fill="white"/>
<path d="M13.4323 24.8959C14.7665 25.1447 15.8633 25.8118 16.7226 26.8972C17.5819 27.9827 18.0116 29.2264 18.0116 30.6284C18.0116 31.8948 17.695 33.0142 17.0618 33.9866C16.4512 34.9363 15.558 35.6826 14.3821 36.2253C13.2062 36.768 11.8154 37.0394 10.2099 37.0394H-0.000152588V13.363H9.76891C11.3745 13.363 12.7539 13.623 13.9072 14.1431C15.0831 14.6633 15.965 15.3869 16.553 16.314C17.1636 17.2412 17.4688 18.2927 17.4688 19.4686C17.4688 20.8481 17.0957 22.0014 16.3495 22.9285C15.6258 23.8557 14.6534 24.5115 13.4323 24.8959ZM4.7487 23.132H9.09051C10.2212 23.132 11.0918 22.8833 11.7024 22.3858C12.3129 21.8657 12.6182 21.1307 12.6182 20.181C12.6182 19.2312 12.3129 18.4963 11.7024 17.9761C11.0918 17.456 10.2212 17.196 9.09051 17.196H4.7487V23.132ZM9.53147 33.1725C10.6848 33.1725 11.578 32.9011 12.2112 32.3584C12.867 31.8157 13.1949 31.0468 13.1949 30.0518C13.1949 29.0342 12.8557 28.2427 12.1773 27.6774C11.4989 27.0894 10.583 26.7954 9.42971 26.7954H4.7487V33.1725H9.53147Z" fill="white"/>
<path d="M73.612 12.6772L82.5411 3.74805M82.5411 3.74805L91.4703 12.6772M82.5411 3.74805V19.2914" stroke="#E3C906" stroke-width="4.85039"/>
<path d="M155.298 49.1506C154.867 49.1506 154.477 49.0774 154.128 48.931C153.785 48.7846 153.513 48.5738 153.312 48.2986C153.111 48.0234 153.008 47.6984 153.002 47.3236H154.332C154.35 47.5754 154.438 47.7745 154.598 47.9209C154.763 48.0673 154.988 48.1405 155.272 48.1405C155.561 48.1405 155.789 48.0731 155.955 47.9385C156.12 47.7979 156.203 47.6164 156.203 47.3939C156.203 47.2124 156.146 47.0631 156.034 46.946C155.922 46.8288 155.78 46.7381 155.609 46.6737C155.443 46.6034 155.213 46.5273 154.917 46.4453C154.515 46.3282 154.187 46.214 153.933 46.1028C153.684 45.9857 153.469 45.8129 153.285 45.5846C153.108 45.3504 153.019 45.04 153.019 44.6536C153.019 44.2905 153.111 43.9743 153.294 43.705C153.478 43.4356 153.735 43.2307 154.066 43.0901C154.397 42.9438 154.775 42.8706 155.201 42.8706C155.839 42.8706 156.356 43.0257 156.753 43.3361C157.154 43.6406 157.376 44.068 157.417 44.6184H156.052C156.04 44.4076 155.949 44.2349 155.777 44.1002C155.612 43.9597 155.39 43.8894 155.112 43.8894C154.87 43.8894 154.675 43.9509 154.527 44.0739C154.385 44.1968 154.314 44.3754 154.314 44.6096C154.314 44.7736 154.367 44.9112 154.474 45.0224C154.586 45.1278 154.722 45.2157 154.882 45.2859C155.047 45.3504 155.278 45.4265 155.573 45.5143C155.975 45.6314 156.303 45.7485 156.557 45.8656C156.812 45.9827 157.03 46.1584 157.214 46.3926C157.397 46.6269 157.488 46.9342 157.488 47.3148C157.488 47.6427 157.403 47.9473 157.231 48.2283C157.06 48.5094 156.809 48.7348 156.478 48.9046C156.146 49.0686 155.753 49.1506 155.298 49.1506Z" fill="white"/>
<path d="M155.298 49.1506C154.867 49.1506 154.477 49.0774 154.128 48.931C153.785 48.7846 153.513 48.5738 153.312 48.2986C153.111 48.0234 153.008 47.6984 153.002 47.3236H154.332C154.35 47.5754 154.438 47.7745 154.598 47.9209C154.763 48.0673 154.988 48.1405 155.272 48.1405C155.561 48.1405 155.789 48.0731 155.955 47.9385C156.12 47.7979 156.203 47.6164 156.203 47.3939C156.203 47.2124 156.146 47.0631 156.034 46.946C155.922 46.8288 155.78 46.7381 155.609 46.6737C155.443 46.6034 155.213 46.5273 154.917 46.4453C154.515 46.3282 154.187 46.214 153.933 46.1028C153.684 45.9857 153.469 45.8129 153.285 45.5846C153.108 45.3504 153.019 45.04 153.019 44.6536C153.019 44.2905 153.111 43.9743 153.294 43.705C153.478 43.4356 153.735 43.2307 154.066 43.0901C154.397 42.9438 154.775 42.8706 155.201 42.8706C155.839 42.8706 156.356 43.0257 156.753 43.3361C157.154 43.6406 157.376 44.068 157.417 44.6184H156.052C156.04 44.4076 155.949 44.2349 155.777 44.1002C155.612 43.9597 155.39 43.8894 155.112 43.8894C154.87 43.8894 154.675 43.9509 154.527 44.0739C154.385 44.1968 154.314 44.3754 154.314 44.6096C154.314 44.7736 154.367 44.9112 154.474 45.0224C154.586 45.1278 154.722 45.2157 154.882 45.2859C155.047 45.3504 155.278 45.4265 155.573 45.5143C155.975 45.6314 156.303 45.7485 156.557 45.8656C156.812 45.9827 157.03 46.1584 157.214 46.3926C157.397 46.6269 157.488 46.9342 157.488 47.3148C157.488 47.6427 157.403 47.9473 157.231 48.2283C157.06 48.5094 156.809 48.7348 156.478 48.9046C156.146 49.0686 155.753 49.1506 155.298 49.1506Z" fill="white"/>
<path d="M155.298 49.1506C154.867 49.1506 154.477 49.0774 154.128 48.931C153.785 48.7846 153.513 48.5738 153.312 48.2986C153.111 48.0234 153.008 47.6984 153.002 47.3236H154.332C154.35 47.5754 154.438 47.7745 154.598 47.9209C154.763 48.0673 154.988 48.1405 155.272 48.1405C155.561 48.1405 155.789 48.0731 155.955 47.9385C156.12 47.7979 156.203 47.6164 156.203 47.3939C156.203 47.2124 156.146 47.0631 156.034 46.946C155.922 46.8288 155.78 46.7381 155.609 46.6737C155.443 46.6034 155.213 46.5273 154.917 46.4453C154.515 46.3282 154.187 46.214 153.933 46.1028C153.684 45.9857 153.469 45.8129 153.285 45.5846C153.108 45.3504 153.019 45.04 153.019 44.6536C153.019 44.2905 153.111 43.9743 153.294 43.705C153.478 43.4356 153.735 43.2307 154.066 43.0901C154.397 42.9438 154.775 42.8706 155.201 42.8706C155.839 42.8706 156.356 43.0257 156.753 43.3361C157.154 43.6406 157.376 44.068 157.417 44.6184H156.052C156.04 44.4076 155.949 44.2349 155.777 44.1002C155.612 43.9597 155.39 43.8894 155.112 43.8894C154.87 43.8894 154.675 43.9509 154.527 44.0739C154.385 44.1968 154.314 44.3754 154.314 44.6096C154.314 44.7736 154.367 44.9112 154.474 45.0224C154.586 45.1278 154.722 45.2157 154.882 45.2859C155.047 45.3504 155.278 45.4265 155.573 45.5143C155.975 45.6314 156.303 45.7485 156.557 45.8656C156.812 45.9827 157.03 46.1584 157.214 46.3926C157.397 46.6269 157.488 46.9342 157.488 47.3148C157.488 47.6427 157.403 47.9473 157.231 48.2283C157.06 48.5094 156.809 48.7348 156.478 48.9046C156.146 49.0686 155.753 49.1506 155.298 49.1506Z" fill="white"/>
<path d="M148.202 42.9585V46.7528C148.202 47.1686 148.312 47.4877 148.53 47.7102C148.749 47.9269 149.056 48.0352 149.452 48.0352C149.854 48.0352 150.165 47.9269 150.384 47.7102C150.602 47.4877 150.712 47.1686 150.712 46.7528V42.9585H151.962V46.7441C151.962 47.2652 151.847 47.7073 151.616 48.0703C151.391 48.4275 151.087 48.6968 150.703 48.8784C150.324 49.0599 149.902 49.1506 149.435 49.1506C148.974 49.1506 148.554 49.0599 148.176 48.8784C147.803 48.6968 147.508 48.4275 147.289 48.0703C147.07 47.7073 146.961 47.2652 146.961 46.7441V42.9585H148.202Z" fill="white"/>
<path d="M148.202 42.9585V46.7528C148.202 47.1686 148.312 47.4877 148.53 47.7102C148.749 47.9269 149.056 48.0352 149.452 48.0352C149.854 48.0352 150.165 47.9269 150.384 47.7102C150.602 47.4877 150.712 47.1686 150.712 46.7528V42.9585H151.962V46.7441C151.962 47.2652 151.847 47.7073 151.616 48.0703C151.391 48.4275 151.087 48.6968 150.703 48.8784C150.324 49.0599 149.902 49.1506 149.435 49.1506C148.974 49.1506 148.554 49.0599 148.176 48.8784C147.803 48.6968 147.508 48.4275 147.289 48.0703C147.07 47.7073 146.961 47.2652 146.961 46.7441V42.9585H148.202Z" fill="white"/>
<path d="M148.202 42.9585V46.7528C148.202 47.1686 148.312 47.4877 148.53 47.7102C148.749 47.9269 149.056 48.0352 149.452 48.0352C149.854 48.0352 150.165 47.9269 150.384 47.7102C150.602 47.4877 150.712 47.1686 150.712 46.7528V42.9585H151.962V46.7441C151.962 47.2652 151.847 47.7073 151.616 48.0703C151.391 48.4275 151.087 48.6968 150.703 48.8784C150.324 49.0599 149.902 49.1506 149.435 49.1506C148.974 49.1506 148.554 49.0599 148.176 48.8784C147.803 48.6968 147.508 48.4275 147.289 48.0703C147.07 47.7073 146.961 47.2652 146.961 46.7441V42.9585H148.202Z" fill="white"/>
<path d="M142.889 49.1505C142.309 49.1505 141.777 49.0159 141.293 48.7465C140.808 48.4772 140.424 48.1053 140.14 47.6311C139.856 47.1509 139.714 46.6092 139.714 46.0061C139.714 45.4089 139.856 44.8731 140.14 44.3988C140.424 43.9187 140.808 43.5439 141.293 43.2746C141.777 43.0052 142.309 42.8705 142.889 42.8705C143.474 42.8705 144.006 43.0052 144.485 43.2746C144.969 43.5439 145.351 43.9187 145.629 44.3988C145.912 44.8731 146.054 45.4089 146.054 46.0061C146.054 46.6092 145.912 47.1509 145.629 47.6311C145.351 48.1053 144.969 48.4772 144.485 48.7465C144 49.0159 143.468 49.1505 142.889 49.1505ZM142.889 48.0527C143.261 48.0527 143.589 47.9706 143.873 47.8067C144.157 47.6369 144.378 47.3968 144.538 47.0865C144.698 46.7761 144.777 46.416 144.777 46.0061C144.777 45.5963 144.698 45.2391 144.538 44.9346C144.378 44.6243 144.157 44.3871 143.873 44.2232C143.589 44.0592 143.261 43.9772 142.889 43.9772C142.516 43.9772 142.185 44.0592 141.896 44.2232C141.612 44.3871 141.39 44.6243 141.231 44.9346C141.071 45.2391 140.991 45.5963 140.991 46.0061C140.991 46.416 141.071 46.7761 141.231 47.0865C141.39 47.3968 141.612 47.6369 141.896 47.8067C142.185 47.9706 142.516 48.0527 142.889 48.0527Z" fill="white"/>
<path d="M142.889 49.1505C142.309 49.1505 141.777 49.0159 141.293 48.7465C140.808 48.4772 140.424 48.1053 140.14 47.6311C139.856 47.1509 139.714 46.6092 139.714 46.0061C139.714 45.4089 139.856 44.8731 140.14 44.3988C140.424 43.9187 140.808 43.5439 141.293 43.2746C141.777 43.0052 142.309 42.8705 142.889 42.8705C143.474 42.8705 144.006 43.0052 144.485 43.2746C144.969 43.5439 145.351 43.9187 145.629 44.3988C145.912 44.8731 146.054 45.4089 146.054 46.0061C146.054 46.6092 145.912 47.1509 145.629 47.6311C145.351 48.1053 144.969 48.4772 144.485 48.7465C144 49.0159 143.468 49.1505 142.889 49.1505ZM142.889 48.0527C143.261 48.0527 143.589 47.9706 143.873 47.8067C144.157 47.6369 144.378 47.3968 144.538 47.0865C144.698 46.7761 144.777 46.416 144.777 46.0061C144.777 45.5963 144.698 45.2391 144.538 44.9346C144.378 44.6243 144.157 44.3871 143.873 44.2232C143.589 44.0592 143.261 43.9772 142.889 43.9772C142.516 43.9772 142.185 44.0592 141.896 44.2232C141.612 44.3871 141.39 44.6243 141.231 44.9346C141.071 45.2391 140.991 45.5963 140.991 46.0061C140.991 46.416 141.071 46.7761 141.231 47.0865C141.39 47.3968 141.612 47.6369 141.896 47.8067C142.185 47.9706 142.516 48.0527 142.889 48.0527Z" fill="white"/>
<path d="M142.889 49.1505C142.309 49.1505 141.777 49.0159 141.293 48.7465C140.808 48.4772 140.424 48.1053 140.14 47.6311C139.856 47.1509 139.714 46.6092 139.714 46.0061C139.714 45.4089 139.856 44.8731 140.14 44.3988C140.424 43.9187 140.808 43.5439 141.293 43.2746C141.777 43.0052 142.309 42.8705 142.889 42.8705C143.474 42.8705 144.006 43.0052 144.485 43.2746C144.969 43.5439 145.351 43.9187 145.629 44.3988C145.912 44.8731 146.054 45.4089 146.054 46.0061C146.054 46.6092 145.912 47.1509 145.629 47.6311C145.351 48.1053 144.969 48.4772 144.485 48.7465C144 49.0159 143.468 49.1505 142.889 49.1505ZM142.889 48.0527C143.261 48.0527 143.589 47.9706 143.873 47.8067C144.157 47.6369 144.378 47.3968 144.538 47.0865C144.698 46.7761 144.777 46.416 144.777 46.0061C144.777 45.5963 144.698 45.2391 144.538 44.9346C144.378 44.6243 144.157 44.3871 143.873 44.2232C143.589 44.0592 143.261 43.9772 142.889 43.9772C142.516 43.9772 142.185 44.0592 141.896 44.2232C141.612 44.3871 141.39 44.6243 141.231 44.9346C141.071 45.2391 140.991 45.5963 140.991 46.0061C140.991 46.416 141.071 46.7761 141.231 47.0865C141.39 47.3968 141.612 47.6369 141.896 47.8067C142.185 47.9706 142.516 48.0527 142.889 48.0527Z" fill="white"/>
<path d="M138.79 42.9585V49.0892H137.548V42.9585H138.79Z" fill="white"/>
<path d="M138.79 42.9585V49.0892H137.548V42.9585H138.79Z" fill="white"/>
<path d="M138.79 42.9585V49.0892H137.548V42.9585H138.79Z" fill="white"/>
<path d="M130.441 46.0148C130.441 45.4116 130.577 44.8729 130.849 44.3986C131.127 43.9185 131.502 43.5467 131.975 43.2832C132.454 43.0138 132.989 42.8792 133.58 42.8792C134.271 42.8792 134.877 43.0548 135.398 43.4061C135.918 43.7575 136.281 44.2435 136.488 44.8642H135.061C134.919 44.5714 134.718 44.3518 134.458 44.2054C134.203 44.059 133.908 43.9858 133.571 43.9858C133.21 43.9858 132.888 44.0707 132.604 44.2406C132.327 44.4045 132.108 44.6387 131.948 44.9432C131.795 45.2477 131.718 45.6049 131.718 46.0148C131.718 46.4188 131.795 46.776 131.948 47.0863C132.108 47.3908 132.327 47.6279 132.604 47.7978C132.888 47.9617 133.21 48.0437 133.571 48.0437C133.908 48.0437 134.203 47.9705 134.458 47.8241C134.718 47.6719 134.919 47.4494 135.061 47.1566H136.488C136.281 47.7831 135.918 48.272 135.398 48.6234C134.883 48.9689 134.277 49.1416 133.58 49.1416C132.989 49.1416 132.454 49.0098 131.975 48.7463C131.502 48.477 131.127 48.1051 130.849 47.6309C130.577 47.1566 130.441 46.6179 130.441 46.0148Z" fill="white"/>
<path d="M130.441 46.0148C130.441 45.4116 130.577 44.8729 130.849 44.3986C131.127 43.9185 131.502 43.5467 131.975 43.2832C132.454 43.0138 132.989 42.8792 133.58 42.8792C134.271 42.8792 134.877 43.0548 135.398 43.4061C135.918 43.7575 136.281 44.2435 136.488 44.8642H135.061C134.919 44.5714 134.718 44.3518 134.458 44.2054C134.203 44.059 133.908 43.9858 133.571 43.9858C133.21 43.9858 132.888 44.0707 132.604 44.2406C132.327 44.4045 132.108 44.6387 131.948 44.9432C131.795 45.2477 131.718 45.6049 131.718 46.0148C131.718 46.4188 131.795 46.776 131.948 47.0863C132.108 47.3908 132.327 47.6279 132.604 47.7978C132.888 47.9617 133.21 48.0437 133.571 48.0437C133.908 48.0437 134.203 47.9705 134.458 47.8241C134.718 47.6719 134.919 47.4494 135.061 47.1566H136.488C136.281 47.7831 135.918 48.272 135.398 48.6234C134.883 48.9689 134.277 49.1416 133.58 49.1416C132.989 49.1416 132.454 49.0098 131.975 48.7463C131.502 48.477 131.127 48.1051 130.849 47.6309C130.577 47.1566 130.441 46.6179 130.441 46.0148Z" fill="white"/>
<path d="M130.441 46.0148C130.441 45.4116 130.577 44.8729 130.849 44.3986C131.127 43.9185 131.502 43.5467 131.975 43.2832C132.454 43.0138 132.989 42.8792 133.58 42.8792C134.271 42.8792 134.877 43.0548 135.398 43.4061C135.918 43.7575 136.281 44.2435 136.488 44.8642H135.061C134.919 44.5714 134.718 44.3518 134.458 44.2054C134.203 44.059 133.908 43.9858 133.571 43.9858C133.21 43.9858 132.888 44.0707 132.604 44.2406C132.327 44.4045 132.108 44.6387 131.948 44.9432C131.795 45.2477 131.718 45.6049 131.718 46.0148C131.718 46.4188 131.795 46.776 131.948 47.0863C132.108 47.3908 132.327 47.6279 132.604 47.7978C132.888 47.9617 133.21 48.0437 133.571 48.0437C133.908 48.0437 134.203 47.9705 134.458 47.8241C134.718 47.6719 134.919 47.4494 135.061 47.1566H136.488C136.281 47.7831 135.918 48.272 135.398 48.6234C134.883 48.9689 134.277 49.1416 133.58 49.1416C132.989 49.1416 132.454 49.0098 131.975 48.7463C131.502 48.477 131.127 48.1051 130.849 47.6309C130.577 47.1566 130.441 46.6179 130.441 46.0148Z" fill="white"/>
<path d="M129.516 42.9585V49.0892H128.275V42.9585H129.516Z" fill="white"/>
<path d="M129.516 42.9585V49.0892H128.275V42.9585H129.516Z" fill="white"/>
<path d="M129.516 42.9585V49.0892H128.275V42.9585H129.516Z" fill="white"/>
<path d="M122.008 44.2049L121.39 42.9803H122.607L123.225 44.2049H122.008Z" fill="white"/>
<path d="M124.461 49.0188L122.607 45.3647H123.843L124.461 46.5893L125.079 45.3647H126.296L124.461 49.0188Z" fill="white"/>
<path d="M125.697 44.2049L126.295 42.9803H127.531L126.913 44.2049H125.697Z" fill="white"/>
<path d="M120.744 49.089H119.502L116.692 44.8819V49.089H115.45V42.9496H116.692L119.502 47.1655V42.9496H120.744V49.089Z" fill="white"/>
<path d="M120.744 49.089H119.502L116.692 44.8819V49.089H115.45V42.9496H116.692L119.502 47.1655V42.9496H120.744V49.089Z" fill="white"/>
<path d="M120.744 49.089H119.502L116.692 44.8819V49.089H115.45V42.9496H116.692L119.502 47.1655V42.9496H120.744V49.089Z" fill="white"/>
<path d="M114.224 42.9585V49.0892H112.982V42.9585H114.224Z" fill="white"/>
<path d="M114.224 42.9585V49.0892H112.982V42.9585H114.224Z" fill="white"/>
<path d="M114.224 42.9585V49.0892H112.982V42.9585H114.224Z" fill="white"/>
<path d="M159.457 42.9334V43.167H158.988V44.6793H158.699V43.167H158.227V42.9334H159.457ZM161.606 42.9334V44.6793H161.317V43.4835L160.779 44.6793H160.579L160.039 43.4835V44.6793H159.75V42.9334H160.062L160.681 44.3025L161.297 42.9334H161.606Z" fill="white"/>
<path d="M97.675 44.5791C97.8654 44.297 98.1263 44.0679 98.4577 43.8916C98.7962 43.7153 99.1805 43.6272 99.6106 43.6272C100.111 43.6272 100.563 43.7506 100.964 43.9974C101.373 44.2442 101.694 44.5967 101.927 45.0551C102.167 45.5064 102.287 46.0317 102.287 46.631C102.287 47.2304 102.167 47.7628 101.927 48.2282C101.694 48.6865 101.373 49.0426 100.964 49.2965C100.563 49.5503 100.111 49.6772 99.6106 49.6772C99.1734 49.6772 98.7891 49.5926 98.4577 49.4234C98.1334 49.2471 97.8725 49.0214 97.675 48.7464V49.582H96.1942V41.755H97.675V44.5791ZM100.774 46.631C100.774 46.2785 100.7 45.9753 100.552 45.7214C100.411 45.4605 100.221 45.2631 99.9808 45.1291C99.7481 44.9951 99.4943 44.9281 99.2193 44.9281C98.9513 44.9281 98.6975 44.9987 98.4577 45.1397C98.225 45.2737 98.0346 45.4711 97.8866 45.732C97.7455 45.9929 97.675 46.2996 97.675 46.6522C97.675 47.0048 97.7455 47.3115 97.8866 47.5724C98.0346 47.8333 98.225 48.0343 98.4577 48.1753C98.6975 48.3093 98.9513 48.3763 99.2193 48.3763C99.4943 48.3763 99.7481 48.3057 99.9808 48.1647C100.221 48.0237 100.411 47.8227 100.552 47.5618C100.7 47.3009 100.774 46.9907 100.774 46.631ZM108.968 43.7224L105.341 52.3532H103.765L105.034 49.434L102.686 43.7224H104.346L105.859 47.8157L107.392 43.7224H108.968Z" fill="white"/>
</svg>
